<mxfile host="app.diagrams.net" modified="2024-04-02T07:08:52.044Z" agent="Mozilla/5.0 (Windows NT 10.0; Win64; x64) AppleWebKit/537.36 (KHTML, like Gecko) Chrome/123.0.0.0 Safari/537.36" etag="U-VvvCuKt1DUw8LuZ1cs" version="24.2.1" type="device">
  <diagram name="페이지-1" id="04URmXsmsF0kAwQbEutU">
    <mxGraphModel dx="1674" dy="746" grid="1" gridSize="10" guides="1" tooltips="1" connect="1" arrows="1" fold="1" page="1" pageScale="1" pageWidth="827" pageHeight="1169" math="0" shadow="0">
      <root>
        <mxCell id="0" />
        <mxCell id="1" parent="0" />
        <mxCell id="VzimInWPmeAXHBLD4f9B-29" style="edgeStyle=orthogonalEdgeStyle;rounded=0;orthogonalLoop=1;jettySize=auto;html=1;exitX=0.5;exitY=0.5;exitDx=0;exitDy=0;exitPerimeter=0;" parent="1" source="VzimInWPmeAXHBLD4f9B-1" target="VzimInWPmeAXHBLD4f9B-11" edge="1">
          <mxGeometry relative="1" as="geometry" />
        </mxCell>
        <mxCell id="VzimInWPmeAXHBLD4f9B-1" value="비회원" style="shape=umlActor;verticalLabelPosition=bottom;verticalAlign=top;html=1;outlineConnect=0;" parent="1" vertex="1">
          <mxGeometry x="30" y="130" width="30" height="60" as="geometry" />
        </mxCell>
        <mxCell id="VzimInWPmeAXHBLD4f9B-7" value="회원" style="shape=umlActor;verticalLabelPosition=bottom;verticalAlign=top;html=1;outlineConnect=0;fillColor=#f8cecc;strokeColor=#b85450;" parent="1" vertex="1">
          <mxGeometry x="30" y="401" width="30" height="60" as="geometry" />
        </mxCell>
        <mxCell id="VzimInWPmeAXHBLD4f9B-27" style="edgeStyle=orthogonalEdgeStyle;rounded=0;orthogonalLoop=1;jettySize=auto;html=1;" parent="1" source="VzimInWPmeAXHBLD4f9B-8" target="VzimInWPmeAXHBLD4f9B-24" edge="1">
          <mxGeometry relative="1" as="geometry">
            <Array as="points">
              <mxPoint x="530" y="160" />
            </Array>
          </mxGeometry>
        </mxCell>
        <mxCell id="VzimInWPmeAXHBLD4f9B-8" value="관리자" style="shape=umlActor;verticalLabelPosition=bottom;verticalAlign=top;html=1;outlineConnect=0;fillColor=#76608a;fontColor=#000000;strokeColor=#432D57;" parent="1" vertex="1">
          <mxGeometry x="750" y="126" width="30" height="60" as="geometry" />
        </mxCell>
        <mxCell id="VzimInWPmeAXHBLD4f9B-28" style="edgeStyle=orthogonalEdgeStyle;rounded=0;orthogonalLoop=1;jettySize=auto;html=1;" parent="1" source="VzimInWPmeAXHBLD4f9B-11" target="VzimInWPmeAXHBLD4f9B-24" edge="1">
          <mxGeometry relative="1" as="geometry" />
        </mxCell>
        <mxCell id="VzimInWPmeAXHBLD4f9B-11" value="지역소개" style="ellipse;whiteSpace=wrap;html=1;fontStyle=1;fontColor=#EA6B66;" parent="1" vertex="1">
          <mxGeometry x="220" y="120" width="120" height="80" as="geometry" />
        </mxCell>
        <mxCell id="VzimInWPmeAXHBLD4f9B-12" value="유래, 연혁" style="ellipse;whiteSpace=wrap;html=1;" parent="1" vertex="1">
          <mxGeometry x="120" y="40" width="80" height="41" as="geometry" />
        </mxCell>
        <mxCell id="VzimInWPmeAXHBLD4f9B-17" style="edgeStyle=orthogonalEdgeStyle;rounded=0;orthogonalLoop=1;jettySize=auto;html=1;exitX=0.5;exitY=1;exitDx=0;exitDy=0;entryX=0.5;entryY=0;entryDx=0;entryDy=0;" parent="1" source="VzimInWPmeAXHBLD4f9B-14" target="VzimInWPmeAXHBLD4f9B-11" edge="1">
          <mxGeometry relative="1" as="geometry" />
        </mxCell>
        <mxCell id="VzimInWPmeAXHBLD4f9B-14" value="시설안내" style="ellipse;whiteSpace=wrap;html=1;" parent="1" vertex="1">
          <mxGeometry x="238.5" y="40" width="81.5" height="41" as="geometry" />
        </mxCell>
        <mxCell id="VzimInWPmeAXHBLD4f9B-15" value="오시는 길" style="ellipse;whiteSpace=wrap;html=1;" parent="1" vertex="1">
          <mxGeometry x="360" y="40" width="80" height="41" as="geometry" />
        </mxCell>
        <mxCell id="VzimInWPmeAXHBLD4f9B-19" value="" style="endArrow=classic;html=1;rounded=0;exitX=0.5;exitY=1;exitDx=0;exitDy=0;" parent="1" source="VzimInWPmeAXHBLD4f9B-12" edge="1">
          <mxGeometry width="50" height="50" relative="1" as="geometry">
            <mxPoint x="390" y="210" as="sourcePoint" />
            <mxPoint x="280" y="120" as="targetPoint" />
          </mxGeometry>
        </mxCell>
        <mxCell id="VzimInWPmeAXHBLD4f9B-20" value="" style="endArrow=classic;html=1;rounded=0;exitX=0.5;exitY=1;exitDx=0;exitDy=0;entryX=0.5;entryY=0;entryDx=0;entryDy=0;" parent="1" source="VzimInWPmeAXHBLD4f9B-15" target="VzimInWPmeAXHBLD4f9B-11" edge="1">
          <mxGeometry width="50" height="50" relative="1" as="geometry">
            <mxPoint x="390" y="210" as="sourcePoint" />
            <mxPoint x="440" y="160" as="targetPoint" />
          </mxGeometry>
        </mxCell>
        <mxCell id="VzimInWPmeAXHBLD4f9B-21" value="&lt;font style=&quot;font-size: 9px;&quot;&gt;&amp;lt;&amp;lt;include&amp;gt;&amp;gt;&lt;/font&gt;" style="text;html=1;align=center;verticalAlign=middle;whiteSpace=wrap;rounded=0;rotation=17;fontSize=11;" parent="1" vertex="1">
          <mxGeometry x="170" y="96" width="60" height="30" as="geometry" />
        </mxCell>
        <mxCell id="VzimInWPmeAXHBLD4f9B-22" value="&lt;font style=&quot;font-size: 9px;&quot;&gt;&amp;lt;&amp;lt;include&amp;gt;&amp;gt;&lt;/font&gt;" style="text;html=1;align=center;verticalAlign=middle;whiteSpace=wrap;rounded=0;rotation=-20;fontSize=11;" parent="1" vertex="1">
          <mxGeometry x="331" y="96" width="60" height="30" as="geometry" />
        </mxCell>
        <mxCell id="VzimInWPmeAXHBLD4f9B-23" value="&lt;font style=&quot;font-size: 9px;&quot;&gt;&amp;lt;&amp;lt;include&amp;gt;&amp;gt;&lt;/font&gt;" style="text;html=1;align=center;verticalAlign=middle;whiteSpace=wrap;rounded=0;fontSize=11;" parent="1" vertex="1">
          <mxGeometry x="250" y="81" width="60" height="30" as="geometry" />
        </mxCell>
        <mxCell id="VzimInWPmeAXHBLD4f9B-24" value="내용 수정" style="ellipse;whiteSpace=wrap;html=1;" parent="1" vertex="1">
          <mxGeometry x="470" y="120" width="120" height="80" as="geometry" />
        </mxCell>
        <mxCell id="VzimInWPmeAXHBLD4f9B-35" style="edgeStyle=orthogonalEdgeStyle;rounded=0;orthogonalLoop=1;jettySize=auto;html=1;entryX=0.5;entryY=1;entryDx=0;entryDy=0;" parent="1" source="VzimInWPmeAXHBLD4f9B-30" target="VzimInWPmeAXHBLD4f9B-31" edge="1">
          <mxGeometry relative="1" as="geometry" />
        </mxCell>
        <mxCell id="VzimInWPmeAXHBLD4f9B-36" style="edgeStyle=orthogonalEdgeStyle;rounded=0;orthogonalLoop=1;jettySize=auto;html=1;exitX=1;exitY=0.5;exitDx=0;exitDy=0;entryX=0.5;entryY=1;entryDx=0;entryDy=0;" parent="1" source="VzimInWPmeAXHBLD4f9B-30" target="VzimInWPmeAXHBLD4f9B-34" edge="1">
          <mxGeometry relative="1" as="geometry" />
        </mxCell>
        <mxCell id="VzimInWPmeAXHBLD4f9B-31" value="교통편" style="ellipse;whiteSpace=wrap;html=1;" parent="1" vertex="1">
          <mxGeometry x="105" y="220" width="80" height="41" as="geometry" />
        </mxCell>
        <mxCell id="VzimInWPmeAXHBLD4f9B-32" value="주요건물" style="ellipse;whiteSpace=wrap;html=1;" parent="1" vertex="1">
          <mxGeometry x="193.5" y="220" width="80" height="41" as="geometry" />
        </mxCell>
        <mxCell id="VzimInWPmeAXHBLD4f9B-33" value="주요협회" style="ellipse;whiteSpace=wrap;html=1;" parent="1" vertex="1">
          <mxGeometry x="285" y="220" width="80" height="41" as="geometry" />
        </mxCell>
        <mxCell id="VzimInWPmeAXHBLD4f9B-34" value="맛집" style="ellipse;whiteSpace=wrap;html=1;" parent="1" vertex="1">
          <mxGeometry x="375" y="220" width="80" height="41" as="geometry" />
        </mxCell>
        <mxCell id="VzimInWPmeAXHBLD4f9B-37" value="" style="endArrow=classic;html=1;rounded=0;entryX=0.5;entryY=1;entryDx=0;entryDy=0;" parent="1" source="VzimInWPmeAXHBLD4f9B-30" target="VzimInWPmeAXHBLD4f9B-33" edge="1">
          <mxGeometry width="50" height="50" relative="1" as="geometry">
            <mxPoint x="395" y="71" as="sourcePoint" />
            <mxPoint x="445" y="21" as="targetPoint" />
          </mxGeometry>
        </mxCell>
        <mxCell id="VzimInWPmeAXHBLD4f9B-38" value="" style="endArrow=classic;html=1;rounded=0;entryX=0.5;entryY=1;entryDx=0;entryDy=0;exitX=0.292;exitY=0.25;exitDx=0;exitDy=0;exitPerimeter=0;" parent="1" source="VzimInWPmeAXHBLD4f9B-30" target="VzimInWPmeAXHBLD4f9B-32" edge="1">
          <mxGeometry width="50" height="50" relative="1" as="geometry">
            <mxPoint x="243.5" y="313" as="sourcePoint" />
            <mxPoint x="264.5" y="271" as="targetPoint" />
          </mxGeometry>
        </mxCell>
        <mxCell id="VzimInWPmeAXHBLD4f9B-42" value="" style="endArrow=classic;html=1;rounded=0;entryX=0.958;entryY=0.275;entryDx=0;entryDy=0;entryPerimeter=0;" parent="1" source="VzimInWPmeAXHBLD4f9B-8" target="VzimInWPmeAXHBLD4f9B-43" edge="1">
          <mxGeometry width="50" height="50" relative="1" as="geometry">
            <mxPoint x="390" y="330" as="sourcePoint" />
            <mxPoint x="600" y="280" as="targetPoint" />
          </mxGeometry>
        </mxCell>
        <mxCell id="VzimInWPmeAXHBLD4f9B-43" value="내용 수정" style="ellipse;whiteSpace=wrap;html=1;" parent="1" vertex="1">
          <mxGeometry x="480" y="290" width="120" height="80" as="geometry" />
        </mxCell>
        <mxCell id="EkAuVIOmoASNRoSGR914-28" style="edgeStyle=orthogonalEdgeStyle;rounded=0;orthogonalLoop=1;jettySize=auto;html=1;exitX=0.5;exitY=1;exitDx=0;exitDy=0;entryX=0.5;entryY=0;entryDx=0;entryDy=0;" edge="1" parent="1" source="VzimInWPmeAXHBLD4f9B-44" target="VzimInWPmeAXHBLD4f9B-46">
          <mxGeometry relative="1" as="geometry" />
        </mxCell>
        <mxCell id="VzimInWPmeAXHBLD4f9B-44" value="공지사항" style="ellipse;whiteSpace=wrap;html=1;fontStyle=1;fontColor=#EA6B66;" parent="1" vertex="1">
          <mxGeometry x="219.25" y="460" width="120" height="80" as="geometry" />
        </mxCell>
        <mxCell id="VzimInWPmeAXHBLD4f9B-86" style="edgeStyle=orthogonalEdgeStyle;rounded=0;orthogonalLoop=1;jettySize=auto;html=1;exitX=1;exitY=0.5;exitDx=0;exitDy=0;entryX=0;entryY=0.5;entryDx=0;entryDy=0;" parent="1" source="VzimInWPmeAXHBLD4f9B-45" target="VzimInWPmeAXHBLD4f9B-57" edge="1">
          <mxGeometry relative="1" as="geometry" />
        </mxCell>
        <mxCell id="VzimInWPmeAXHBLD4f9B-45" value="목록 보기" style="ellipse;whiteSpace=wrap;html=1;fontColor=#7EA6E0;fontStyle=1" parent="1" vertex="1">
          <mxGeometry x="118.25" y="410" width="80" height="41" as="geometry" />
        </mxCell>
        <mxCell id="VzimInWPmeAXHBLD4f9B-46" value="상세 보기" style="ellipse;whiteSpace=wrap;html=1;" parent="1" vertex="1">
          <mxGeometry x="240" y="600" width="80" height="41" as="geometry" />
        </mxCell>
        <mxCell id="VzimInWPmeAXHBLD4f9B-62" style="edgeStyle=orthogonalEdgeStyle;rounded=0;orthogonalLoop=1;jettySize=auto;html=1;exitX=1;exitY=0.5;exitDx=0;exitDy=0;entryX=0;entryY=0.5;entryDx=0;entryDy=0;" parent="1" source="VzimInWPmeAXHBLD4f9B-30" target="VzimInWPmeAXHBLD4f9B-43" edge="1">
          <mxGeometry relative="1" as="geometry" />
        </mxCell>
        <mxCell id="VzimInWPmeAXHBLD4f9B-30" value="이용안내" style="ellipse;whiteSpace=wrap;html=1;fontStyle=1;fontColor=#EA6B66;" parent="1" vertex="1">
          <mxGeometry x="225" y="290" width="120" height="80" as="geometry" />
        </mxCell>
        <mxCell id="VzimInWPmeAXHBLD4f9B-48" value="로그인" style="ellipse;whiteSpace=wrap;html=1;" parent="1" vertex="1">
          <mxGeometry x="118.25" y="600" width="80" height="41" as="geometry" />
        </mxCell>
        <mxCell id="VzimInWPmeAXHBLD4f9B-77" style="edgeStyle=orthogonalEdgeStyle;rounded=0;orthogonalLoop=1;jettySize=auto;html=1;exitX=0.5;exitY=1;exitDx=0;exitDy=0;entryX=0.5;entryY=0;entryDx=0;entryDy=0;" parent="1" source="EkAuVIOmoASNRoSGR914-5" target="VzimInWPmeAXHBLD4f9B-48" edge="1">
          <mxGeometry relative="1" as="geometry" />
        </mxCell>
        <mxCell id="VzimInWPmeAXHBLD4f9B-49" value="회원가입" style="ellipse;whiteSpace=wrap;html=1;" parent="1" vertex="1">
          <mxGeometry x="120" y="479.5" width="80" height="41" as="geometry" />
        </mxCell>
        <mxCell id="VzimInWPmeAXHBLD4f9B-50" value="" style="endArrow=classic;html=1;rounded=0;entryX=0;entryY=0.5;entryDx=0;entryDy=0;" parent="1" target="VzimInWPmeAXHBLD4f9B-49" edge="1">
          <mxGeometry width="50" height="50" relative="1" as="geometry">
            <mxPoint x="66" y="217" as="sourcePoint" />
            <mxPoint x="120" y="490" as="targetPoint" />
            <Array as="points">
              <mxPoint x="98" y="489" />
            </Array>
          </mxGeometry>
        </mxCell>
        <mxCell id="VzimInWPmeAXHBLD4f9B-80" style="edgeStyle=orthogonalEdgeStyle;rounded=0;orthogonalLoop=1;jettySize=auto;html=1;exitX=1;exitY=0.5;exitDx=0;exitDy=0;entryX=0;entryY=0.5;entryDx=0;entryDy=0;" parent="1" source="VzimInWPmeAXHBLD4f9B-56" target="VzimInWPmeAXHBLD4f9B-73" edge="1">
          <mxGeometry relative="1" as="geometry" />
        </mxCell>
        <mxCell id="VzimInWPmeAXHBLD4f9B-56" value="회원" style="ellipse;whiteSpace=wrap;html=1;" parent="1" vertex="1">
          <mxGeometry x="20" y="700" width="80" height="41" as="geometry" />
        </mxCell>
        <mxCell id="VzimInWPmeAXHBLD4f9B-87" style="edgeStyle=orthogonalEdgeStyle;rounded=0;orthogonalLoop=1;jettySize=auto;html=1;exitX=1;exitY=0.5;exitDx=0;exitDy=0;" parent="1" source="VzimInWPmeAXHBLD4f9B-57" edge="1">
          <mxGeometry relative="1" as="geometry">
            <mxPoint x="330" y="431" as="targetPoint" />
          </mxGeometry>
        </mxCell>
        <mxCell id="VzimInWPmeAXHBLD4f9B-57" value="글 수정" style="ellipse;whiteSpace=wrap;html=1;fontColor=#7EA6E0;fontStyle=1" parent="1" vertex="1">
          <mxGeometry x="220" y="410" width="80" height="41" as="geometry" />
        </mxCell>
        <mxCell id="VzimInWPmeAXHBLD4f9B-97" style="edgeStyle=orthogonalEdgeStyle;rounded=0;orthogonalLoop=1;jettySize=auto;html=1;exitX=1;exitY=0.5;exitDx=0;exitDy=0;entryX=0;entryY=0.5;entryDx=0;entryDy=0;" parent="1" source="VzimInWPmeAXHBLD4f9B-58" target="VzimInWPmeAXHBLD4f9B-59" edge="1">
          <mxGeometry relative="1" as="geometry" />
        </mxCell>
        <mxCell id="VzimInWPmeAXHBLD4f9B-58" value="글 등록" style="ellipse;whiteSpace=wrap;html=1;fontColor=#7EA6E0;fontStyle=1" parent="1" vertex="1">
          <mxGeometry x="320" y="412" width="80" height="41" as="geometry" />
        </mxCell>
        <mxCell id="VzimInWPmeAXHBLD4f9B-59" value="글 삭제" style="ellipse;whiteSpace=wrap;html=1;fontColor=#7EA6E0;fontStyle=1" parent="1" vertex="1">
          <mxGeometry x="420" y="410" width="80" height="41" as="geometry" />
        </mxCell>
        <mxCell id="VzimInWPmeAXHBLD4f9B-60" value="" style="endArrow=classic;html=1;rounded=0;" parent="1" edge="1">
          <mxGeometry width="50" height="50" relative="1" as="geometry">
            <mxPoint x="45" y="217" as="sourcePoint" />
            <mxPoint x="45" y="397" as="targetPoint" />
          </mxGeometry>
        </mxCell>
        <mxCell id="VzimInWPmeAXHBLD4f9B-84" style="edgeStyle=orthogonalEdgeStyle;rounded=0;orthogonalLoop=1;jettySize=auto;html=1;exitX=0;exitY=1;exitDx=0;exitDy=0;entryX=0.5;entryY=0;entryDx=0;entryDy=0;" parent="1" source="VzimInWPmeAXHBLD4f9B-61" target="VzimInWPmeAXHBLD4f9B-58" edge="1">
          <mxGeometry relative="1" as="geometry">
            <Array as="points">
              <mxPoint x="398" y="381" />
              <mxPoint x="360" y="381" />
            </Array>
          </mxGeometry>
        </mxCell>
        <mxCell id="VzimInWPmeAXHBLD4f9B-61" value="글 관리" style="ellipse;whiteSpace=wrap;html=1;fontColor=#FF8000;fontStyle=1" parent="1" vertex="1">
          <mxGeometry x="391" y="366" width="50" height="30" as="geometry" />
        </mxCell>
        <mxCell id="VzimInWPmeAXHBLD4f9B-68" value="탈퇴" style="ellipse;whiteSpace=wrap;html=1;fontColor=#FF8000;fontStyle=1" parent="1" vertex="1">
          <mxGeometry x="80" y="544.5" width="36.5" height="30" as="geometry" />
        </mxCell>
        <mxCell id="VzimInWPmeAXHBLD4f9B-70" value="" style="endArrow=classic;html=1;rounded=0;" parent="1" edge="1">
          <mxGeometry width="50" height="50" relative="1" as="geometry">
            <mxPoint x="99" y="544" as="sourcePoint" />
            <mxPoint x="59" y="214" as="targetPoint" />
          </mxGeometry>
        </mxCell>
        <mxCell id="VzimInWPmeAXHBLD4f9B-71" value="" style="endArrow=classic;html=1;rounded=0;" parent="1" edge="1">
          <mxGeometry width="50" height="50" relative="1" as="geometry">
            <mxPoint x="40" y="490" as="sourcePoint" />
            <mxPoint x="110" y="620" as="targetPoint" />
            <Array as="points">
              <mxPoint x="40" y="620" />
            </Array>
          </mxGeometry>
        </mxCell>
        <mxCell id="VzimInWPmeAXHBLD4f9B-72" value="회원 관리" style="ellipse;whiteSpace=wrap;html=1;fontColor=#FF8000;fontStyle=1" parent="1" vertex="1">
          <mxGeometry x="248.5" y="705.5" width="60" height="30" as="geometry" />
        </mxCell>
        <mxCell id="VzimInWPmeAXHBLD4f9B-81" style="edgeStyle=orthogonalEdgeStyle;rounded=0;orthogonalLoop=1;jettySize=auto;html=1;exitX=1;exitY=0.5;exitDx=0;exitDy=0;" parent="1" source="VzimInWPmeAXHBLD4f9B-73" edge="1">
          <mxGeometry relative="1" as="geometry">
            <mxPoint x="240" y="720.5" as="targetPoint" />
          </mxGeometry>
        </mxCell>
        <mxCell id="VzimInWPmeAXHBLD4f9B-82" style="edgeStyle=orthogonalEdgeStyle;rounded=0;orthogonalLoop=1;jettySize=auto;html=1;exitX=0.5;exitY=1;exitDx=0;exitDy=0;entryX=0.5;entryY=0;entryDx=0;entryDy=0;" parent="1" source="EkAuVIOmoASNRoSGR914-4" target="VzimInWPmeAXHBLD4f9B-74" edge="1">
          <mxGeometry relative="1" as="geometry" />
        </mxCell>
        <mxCell id="VzimInWPmeAXHBLD4f9B-73" value="목록 보기" style="ellipse;whiteSpace=wrap;html=1;fontColor=#7EA6E0;fontStyle=1" parent="1" vertex="1">
          <mxGeometry x="120" y="700" width="80" height="41" as="geometry" />
        </mxCell>
        <mxCell id="VzimInWPmeAXHBLD4f9B-74" value="상세정보" style="ellipse;whiteSpace=wrap;html=1;fontColor=#7EA6E0;fontStyle=1" parent="1" vertex="1">
          <mxGeometry x="120" y="800" width="80" height="41" as="geometry" />
        </mxCell>
        <mxCell id="VzimInWPmeAXHBLD4f9B-75" value="" style="endArrow=classic;html=1;rounded=0;entryX=0.263;entryY=-0.073;entryDx=0;entryDy=0;entryPerimeter=0;" parent="1" target="VzimInWPmeAXHBLD4f9B-56" edge="1">
          <mxGeometry width="50" height="50" relative="1" as="geometry">
            <mxPoint x="40" y="620" as="sourcePoint" />
            <mxPoint x="40" y="690" as="targetPoint" />
          </mxGeometry>
        </mxCell>
        <mxCell id="VzimInWPmeAXHBLD4f9B-79" value="" style="endArrow=classic;html=1;rounded=0;exitX=0.5;exitY=0;exitDx=0;exitDy=0;entryX=0;entryY=1;entryDx=0;entryDy=0;" parent="1" source="VzimInWPmeAXHBLD4f9B-56" target="VzimInWPmeAXHBLD4f9B-48" edge="1">
          <mxGeometry width="50" height="50" relative="1" as="geometry">
            <mxPoint x="390" y="630" as="sourcePoint" />
            <mxPoint x="440" y="580" as="targetPoint" />
          </mxGeometry>
        </mxCell>
        <mxCell id="VzimInWPmeAXHBLD4f9B-85" style="edgeStyle=orthogonalEdgeStyle;rounded=0;orthogonalLoop=1;jettySize=auto;html=1;exitX=1;exitY=0.5;exitDx=0;exitDy=0;entryX=0.613;entryY=0.073;entryDx=0;entryDy=0;entryPerimeter=0;" parent="1" source="VzimInWPmeAXHBLD4f9B-61" target="VzimInWPmeAXHBLD4f9B-59" edge="1">
          <mxGeometry relative="1" as="geometry">
            <Array as="points">
              <mxPoint x="441" y="380" />
              <mxPoint x="469" y="380" />
            </Array>
          </mxGeometry>
        </mxCell>
        <mxCell id="EkAuVIOmoASNRoSGR914-1" value="&lt;font style=&quot;font-size: 9px;&quot;&gt;&amp;lt;&amp;lt;include&amp;gt;&amp;gt;&lt;/font&gt;" style="text;html=1;align=center;verticalAlign=middle;whiteSpace=wrap;rounded=0;fontSize=11;" vertex="1" parent="1">
          <mxGeometry x="248.5" y="544.5" width="60" height="30" as="geometry" />
        </mxCell>
        <mxCell id="EkAuVIOmoASNRoSGR914-2" value="&lt;font style=&quot;font-size: 8px;&quot;&gt;&amp;lt;&amp;lt;include&amp;gt;&amp;gt;&lt;/font&gt;" style="text;html=1;align=center;verticalAlign=middle;whiteSpace=wrap;rounded=0;fontSize=11;" vertex="1" parent="1">
          <mxGeometry x="188.5" y="690" width="60" height="30" as="geometry" />
        </mxCell>
        <mxCell id="EkAuVIOmoASNRoSGR914-3" value="&lt;font style=&quot;font-size: 8px;&quot;&gt;&amp;lt;&amp;lt;include&amp;gt;&amp;gt;&lt;/font&gt;" style="text;html=1;align=center;verticalAlign=middle;whiteSpace=wrap;rounded=0;fontSize=11;" vertex="1" parent="1">
          <mxGeometry x="80" y="690" width="60" height="30" as="geometry" />
        </mxCell>
        <mxCell id="EkAuVIOmoASNRoSGR914-6" value="" style="edgeStyle=orthogonalEdgeStyle;rounded=0;orthogonalLoop=1;jettySize=auto;html=1;exitX=0.5;exitY=1;exitDx=0;exitDy=0;entryX=0.5;entryY=0;entryDx=0;entryDy=0;" edge="1" parent="1" source="VzimInWPmeAXHBLD4f9B-49" target="EkAuVIOmoASNRoSGR914-5">
          <mxGeometry relative="1" as="geometry">
            <mxPoint x="160" y="521" as="sourcePoint" />
            <mxPoint x="160" y="600" as="targetPoint" />
          </mxGeometry>
        </mxCell>
        <mxCell id="EkAuVIOmoASNRoSGR914-5" value="&lt;font style=&quot;font-size: 9px;&quot;&gt;&amp;lt;&amp;lt;include&amp;gt;&amp;gt;&lt;/font&gt;" style="text;html=1;align=center;verticalAlign=middle;whiteSpace=wrap;rounded=0;fontSize=11;" vertex="1" parent="1">
          <mxGeometry x="128.25" y="540" width="60" height="30" as="geometry" />
        </mxCell>
        <mxCell id="EkAuVIOmoASNRoSGR914-7" value="&lt;font style=&quot;font-size: 10px;&quot;&gt;&amp;lt;&amp;lt;include&amp;gt;&amp;gt;&lt;/font&gt;" style="text;html=1;align=center;verticalAlign=middle;whiteSpace=wrap;rounded=0;fontSize=11;rotation=80;" vertex="1" parent="1">
          <mxGeometry x="68.25" y="371" width="60" height="30" as="geometry" />
        </mxCell>
        <mxCell id="EkAuVIOmoASNRoSGR914-8" value="&lt;font style=&quot;font-size: 9px;&quot;&gt;&amp;lt;&amp;lt;include&amp;gt;&amp;gt;&lt;/font&gt;" style="text;html=1;align=center;verticalAlign=middle;whiteSpace=wrap;rounded=0;fontSize=11;" vertex="1" parent="1">
          <mxGeometry x="159.25" y="300" width="60" height="30" as="geometry" />
        </mxCell>
        <mxCell id="EkAuVIOmoASNRoSGR914-9" value="&lt;font style=&quot;font-size: 9px;&quot;&gt;&amp;lt;&amp;lt;include&amp;gt;&amp;gt;&lt;/font&gt;" style="text;html=1;align=center;verticalAlign=middle;whiteSpace=wrap;rounded=0;fontSize=11;" vertex="1" parent="1">
          <mxGeometry x="345" y="300" width="60" height="30" as="geometry" />
        </mxCell>
        <mxCell id="EkAuVIOmoASNRoSGR914-10" value="&lt;font style=&quot;font-size: 9px;&quot;&gt;&amp;lt;&amp;lt;include&amp;gt;&amp;gt;&lt;/font&gt;" style="text;html=1;align=center;verticalAlign=middle;whiteSpace=wrap;rounded=0;fontSize=11;" vertex="1" parent="1">
          <mxGeometry x="420" y="300" width="60" height="30" as="geometry" />
        </mxCell>
        <mxCell id="EkAuVIOmoASNRoSGR914-11" value="&lt;font style=&quot;font-size: 9px;&quot;&gt;&amp;lt;&amp;lt;include&amp;gt;&amp;gt;&lt;/font&gt;" style="text;html=1;align=center;verticalAlign=middle;whiteSpace=wrap;rounded=0;fontSize=11;" vertex="1" parent="1">
          <mxGeometry x="370" y="130" width="60" height="30" as="geometry" />
        </mxCell>
        <mxCell id="EkAuVIOmoASNRoSGR914-13" value="&lt;font style=&quot;font-size: 9px;&quot;&gt;&amp;lt;&amp;lt;include&amp;gt;&amp;gt;&lt;/font&gt;" style="text;html=1;align=center;verticalAlign=middle;whiteSpace=wrap;rounded=0;fontSize=11;" vertex="1" parent="1">
          <mxGeometry x="180" y="401" width="60" height="30" as="geometry" />
        </mxCell>
        <mxCell id="EkAuVIOmoASNRoSGR914-14" value="&lt;font style=&quot;font-size: 9px;&quot;&gt;&amp;lt;&amp;lt;include&amp;gt;&amp;gt;&lt;/font&gt;" style="text;html=1;align=center;verticalAlign=middle;whiteSpace=wrap;rounded=0;fontSize=11;" vertex="1" parent="1">
          <mxGeometry x="285" y="401" width="60" height="30" as="geometry" />
        </mxCell>
        <mxCell id="EkAuVIOmoASNRoSGR914-15" value="&lt;font style=&quot;font-size: 9px;&quot;&gt;&amp;lt;&amp;lt;include&amp;gt;&amp;gt;&lt;/font&gt;" style="text;html=1;align=center;verticalAlign=middle;whiteSpace=wrap;rounded=0;fontSize=11;" vertex="1" parent="1">
          <mxGeometry x="433" y="360" width="60" height="30" as="geometry" />
        </mxCell>
        <mxCell id="EkAuVIOmoASNRoSGR914-18" value="&lt;font style=&quot;font-size: 9px;&quot;&gt;&amp;lt;&amp;lt;include&amp;gt;&amp;gt;&lt;/font&gt;" style="text;html=1;align=center;verticalAlign=middle;whiteSpace=wrap;rounded=0;fontSize=11;" vertex="1" parent="1">
          <mxGeometry x="340" y="360" width="60" height="30" as="geometry" />
        </mxCell>
        <mxCell id="EkAuVIOmoASNRoSGR914-19" value="&lt;font style=&quot;font-size: 9px;&quot;&gt;&amp;lt;&amp;lt;include&amp;gt;&amp;gt;&lt;/font&gt;" style="text;html=1;align=center;verticalAlign=middle;whiteSpace=wrap;rounded=0;fontSize=11;" vertex="1" parent="1">
          <mxGeometry x="380" y="401" width="60" height="30" as="geometry" />
        </mxCell>
        <mxCell id="EkAuVIOmoASNRoSGR914-20" value="&lt;font style=&quot;font-size: 8px;&quot;&gt;&amp;lt;&amp;lt;include&amp;gt;&amp;gt;&lt;/font&gt;" style="text;html=1;align=center;verticalAlign=middle;whiteSpace=wrap;rounded=0;fontSize=11;rotation=60;" vertex="1" parent="1">
          <mxGeometry x="225" y="261" width="60" height="30" as="geometry" />
        </mxCell>
        <mxCell id="EkAuVIOmoASNRoSGR914-21" value="&lt;font style=&quot;font-size: 8px;&quot;&gt;&amp;lt;&amp;lt;include&amp;gt;&amp;gt;&lt;/font&gt;" style="text;html=1;align=center;verticalAlign=middle;whiteSpace=wrap;rounded=0;fontSize=11;rotation=-62;" vertex="1" parent="1">
          <mxGeometry x="295" y="261" width="60" height="30" as="geometry" />
        </mxCell>
        <mxCell id="EkAuVIOmoASNRoSGR914-25" value="" style="edgeStyle=orthogonalEdgeStyle;rounded=0;orthogonalLoop=1;jettySize=auto;html=1;exitX=0.5;exitY=1;exitDx=0;exitDy=0;entryX=0.5;entryY=0;entryDx=0;entryDy=0;" edge="1" parent="1" source="VzimInWPmeAXHBLD4f9B-73" target="EkAuVIOmoASNRoSGR914-4">
          <mxGeometry relative="1" as="geometry">
            <mxPoint x="160" y="741" as="sourcePoint" />
            <mxPoint x="160" y="780" as="targetPoint" />
          </mxGeometry>
        </mxCell>
        <mxCell id="EkAuVIOmoASNRoSGR914-4" value="&lt;font style=&quot;font-size: 9px;&quot;&gt;&amp;lt;&amp;lt;include&amp;gt;&amp;gt;&lt;/font&gt;" style="text;html=1;align=center;verticalAlign=middle;whiteSpace=wrap;rounded=0;fontSize=11;" vertex="1" parent="1">
          <mxGeometry x="130" y="760" width="60" height="30" as="geometry" />
        </mxCell>
        <mxCell id="EkAuVIOmoASNRoSGR914-29" value="&lt;font style=&quot;font-size: 10px;&quot;&gt;&amp;lt;&amp;lt;include&amp;gt;&amp;gt;&lt;/font&gt;" style="text;html=1;align=center;verticalAlign=middle;whiteSpace=wrap;rounded=0;fontSize=11;rotation=-45;" vertex="1" parent="1">
          <mxGeometry x="56.5" y="650" width="60" height="30" as="geometry" />
        </mxCell>
      </root>
    </mxGraphModel>
  </diagram>
</mxfile>
